<mxfile host="app.diagrams.net" modified="2023-10-18T10:49:35.038Z" agent="Mozilla/5.0 (Windows NT 10.0; Win64; x64) AppleWebKit/537.36 (KHTML, like Gecko) Chrome/118.0.0.0 Safari/537.36 Edg/118.0.2088.46" etag="fXlIEoQ6pvXxkPILbe63" version="22.0.4" type="device">
  <diagram name="PÃ¡gina-1" id="7zzRH2UkfeKaquIX6ZkR">
    <mxGraphModel dx="1002" dy="569" grid="1" gridSize="10" guides="1" tooltips="1" connect="1" arrows="1" fold="1" page="1" pageScale="1" pageWidth="827" pageHeight="1169" math="0" shadow="0">
      <root>
        <mxCell id="0" />
        <mxCell id="1" parent="0" />
        <mxCell id="7Npt1wdLBXmJ5ymIumH4-31" value="" style="rounded=0;whiteSpace=wrap;html=1;fillColor=none;dashed=1;strokeWidth=6;" parent="1" vertex="1">
          <mxGeometry x="10" y="290" width="830" height="330" as="geometry" />
        </mxCell>
        <mxCell id="7Npt1wdLBXmJ5ymIumH4-1" value="OPCDA converter" style="rounded=0;whiteSpace=wrap;html=1;" parent="1" vertex="1">
          <mxGeometry x="140" y="530" width="90" height="60" as="geometry" />
        </mxCell>
        <mxCell id="7Npt1wdLBXmJ5ymIumH4-3" value="MQTT Brocker" style="rounded=1;whiteSpace=wrap;html=1;" parent="1" vertex="1">
          <mxGeometry x="30" y="430" width="420" height="50" as="geometry" />
        </mxCell>
        <mxCell id="7Npt1wdLBXmJ5ymIumH4-4" value="MODBUS converter" style="rounded=0;whiteSpace=wrap;html=1;" parent="1" vertex="1">
          <mxGeometry x="30" y="530" width="90" height="60" as="geometry" />
        </mxCell>
        <mxCell id="7Npt1wdLBXmJ5ymIumH4-5" value="OPCUA converter" style="rounded=0;whiteSpace=wrap;html=1;" parent="1" vertex="1">
          <mxGeometry x="250" y="530" width="90" height="60" as="geometry" />
        </mxCell>
        <mxCell id="7Npt1wdLBXmJ5ymIumH4-6" value="..." style="rounded=0;whiteSpace=wrap;html=1;" parent="1" vertex="1">
          <mxGeometry x="360" y="530" width="90" height="60" as="geometry" />
        </mxCell>
        <mxCell id="7Npt1wdLBXmJ5ymIumH4-7" value="MongoDB" style="shape=cylinder3;whiteSpace=wrap;html=1;boundedLbl=1;backgroundOutline=1;size=15;" parent="1" vertex="1">
          <mxGeometry x="675" y="415" width="130" height="80" as="geometry" />
        </mxCell>
        <mxCell id="7Npt1wdLBXmJ5ymIumH4-9" value="Cloud Bridge" style="rounded=0;whiteSpace=wrap;html=1;" parent="1" vertex="1">
          <mxGeometry x="160" y="340" width="120" height="45" as="geometry" />
        </mxCell>
        <mxCell id="7Npt1wdLBXmJ5ymIumH4-10" value="DataManager" style="rounded=0;whiteSpace=wrap;html=1;" parent="1" vertex="1">
          <mxGeometry x="480" y="435" width="160" height="40" as="geometry" />
        </mxCell>
        <mxCell id="7Npt1wdLBXmJ5ymIumH4-12" value="" style="image;sketch=0;aspect=fixed;html=1;points=[];align=center;fontSize=12;image=img/lib/mscae/Docker.svg;" parent="1" vertex="1">
          <mxGeometry x="210" y="520" width="40" height="32.8" as="geometry" />
        </mxCell>
        <mxCell id="7Npt1wdLBXmJ5ymIumH4-13" value="" style="image;sketch=0;aspect=fixed;html=1;points=[];align=center;fontSize=12;image=img/lib/mscae/Docker.svg;" parent="1" vertex="1">
          <mxGeometry x="400" y="438.6" width="40" height="32.8" as="geometry" />
        </mxCell>
        <mxCell id="7Npt1wdLBXmJ5ymIumH4-14" value="" style="image;sketch=0;aspect=fixed;html=1;points=[];align=center;fontSize=12;image=img/lib/mscae/Docker.svg;" parent="1" vertex="1">
          <mxGeometry x="414" y="530" width="40" height="32.8" as="geometry" />
        </mxCell>
        <mxCell id="7Npt1wdLBXmJ5ymIumH4-15" value="" style="image;sketch=0;aspect=fixed;html=1;points=[];align=center;fontSize=12;image=img/lib/mscae/Docker.svg;" parent="1" vertex="1">
          <mxGeometry x="320" y="520" width="40" height="32.8" as="geometry" />
        </mxCell>
        <mxCell id="7Npt1wdLBXmJ5ymIumH4-16" value="" style="image;sketch=0;aspect=fixed;html=1;points=[];align=center;fontSize=12;image=img/lib/mscae/Docker.svg;" parent="1" vertex="1">
          <mxGeometry x="100" y="510" width="40" height="32.8" as="geometry" />
        </mxCell>
        <mxCell id="7Npt1wdLBXmJ5ymIumH4-17" value="" style="image;sketch=0;aspect=fixed;html=1;points=[];align=center;fontSize=12;image=img/lib/mscae/Docker.svg;" parent="1" vertex="1">
          <mxGeometry x="260" y="330" width="40" height="32.8" as="geometry" />
        </mxCell>
        <mxCell id="7Npt1wdLBXmJ5ymIumH4-18" value="" style="image;sketch=0;aspect=fixed;html=1;points=[];align=center;fontSize=12;image=img/lib/mscae/Docker.svg;" parent="1" vertex="1">
          <mxGeometry x="765" y="397.2" width="40" height="32.8" as="geometry" />
        </mxCell>
        <mxCell id="7Npt1wdLBXmJ5ymIumH4-19" value="" style="image;sketch=0;aspect=fixed;html=1;points=[];align=center;fontSize=12;image=img/lib/mscae/Docker.svg;" parent="1" vertex="1">
          <mxGeometry x="615" y="420" width="40" height="32.8" as="geometry" />
        </mxCell>
        <mxCell id="7Npt1wdLBXmJ5ymIumH4-20" value="" style="sketch=0;aspect=fixed;pointerEvents=1;shadow=0;dashed=0;html=1;strokeColor=none;labelPosition=center;verticalLabelPosition=bottom;verticalAlign=top;align=center;fillColor=#00188D;shape=mxgraph.mscae.enterprise.internet_hollow" parent="1" vertex="1">
          <mxGeometry x="54.67" y="20" width="350.65" height="217.4" as="geometry" />
        </mxCell>
        <mxCell id="7Npt1wdLBXmJ5ymIumH4-24" value="FrontEnd" style="rounded=0;whiteSpace=wrap;html=1;" parent="1" vertex="1">
          <mxGeometry x="680" y="316.95" width="120" height="51.1" as="geometry" />
        </mxCell>
        <mxCell id="7Npt1wdLBXmJ5ymIumH4-25" value="" style="image;sketch=0;aspect=fixed;html=1;points=[];align=center;fontSize=12;image=img/lib/mscae/Docker.svg;" parent="1" vertex="1">
          <mxGeometry x="780" y="307.2" width="40" height="32.8" as="geometry" />
        </mxCell>
        <mxCell id="7Npt1wdLBXmJ5ymIumH4-26" value="Dashboard" style="shape=ext;double=1;whiteSpace=wrap;html=1;aspect=fixed;" parent="1" vertex="1">
          <mxGeometry x="525" y="50" width="90" height="90" as="geometry" />
        </mxCell>
        <mxCell id="7Npt1wdLBXmJ5ymIumH4-27" value="Unity Engine" style="shape=ext;double=1;whiteSpace=wrap;html=1;aspect=fixed;" parent="1" vertex="1">
          <mxGeometry x="597.5" y="160" width="90" height="90" as="geometry" />
        </mxCell>
        <mxCell id="7Npt1wdLBXmJ5ymIumH4-28" value="" style="shape=flexArrow;endArrow=classic;html=1;rounded=0;entryX=0;entryY=0.5;entryDx=0;entryDy=0;" parent="1" target="7kdsMO98y5sn18G8m-w_-2" edge="1">
          <mxGeometry width="50" height="50" relative="1" as="geometry">
            <mxPoint x="415" y="205" as="sourcePoint" />
            <mxPoint x="465" y="150" as="targetPoint" />
          </mxGeometry>
        </mxCell>
        <mxCell id="7Npt1wdLBXmJ5ymIumH4-29" value="" style="shape=flexArrow;endArrow=classic;html=1;rounded=0;entryX=0;entryY=0.5;entryDx=0;entryDy=0;" parent="1" edge="1">
          <mxGeometry width="50" height="50" relative="1" as="geometry">
            <mxPoint x="410.32" y="94.5" as="sourcePoint" />
            <mxPoint x="520.32" y="94.5" as="targetPoint" />
          </mxGeometry>
        </mxCell>
        <mxCell id="7Npt1wdLBXmJ5ymIumH4-33" value="" style="endArrow=classic;startArrow=classic;html=1;rounded=0;exitX=0.5;exitY=0;exitDx=0;exitDy=0;" parent="1" source="7Npt1wdLBXmJ5ymIumH4-6" edge="1">
          <mxGeometry width="50" height="50" relative="1" as="geometry">
            <mxPoint x="390" y="520" as="sourcePoint" />
            <mxPoint x="350" y="480" as="targetPoint" />
            <Array as="points">
              <mxPoint x="405" y="500" />
              <mxPoint x="350" y="500" />
            </Array>
          </mxGeometry>
        </mxCell>
        <mxCell id="7Npt1wdLBXmJ5ymIumH4-34" value="" style="endArrow=classic;startArrow=classic;html=1;rounded=0;exitX=0.5;exitY=0;exitDx=0;exitDy=0;entryX=0.5;entryY=1;entryDx=0;entryDy=0;" parent="1" source="7Npt1wdLBXmJ5ymIumH4-1" target="7Npt1wdLBXmJ5ymIumH4-3" edge="1">
          <mxGeometry width="50" height="50" relative="1" as="geometry">
            <mxPoint x="415" y="540" as="sourcePoint" />
            <mxPoint x="360" y="490" as="targetPoint" />
            <Array as="points">
              <mxPoint x="185" y="510" />
              <mxPoint x="240" y="510" />
            </Array>
          </mxGeometry>
        </mxCell>
        <mxCell id="7Npt1wdLBXmJ5ymIumH4-35" value="" style="endArrow=classic;startArrow=classic;html=1;rounded=0;exitX=0.5;exitY=0;exitDx=0;exitDy=0;entryX=0.5;entryY=1;entryDx=0;entryDy=0;" parent="1" source="7Npt1wdLBXmJ5ymIumH4-5" target="7Npt1wdLBXmJ5ymIumH4-3" edge="1">
          <mxGeometry width="50" height="50" relative="1" as="geometry">
            <mxPoint x="300" y="530" as="sourcePoint" />
            <mxPoint x="250" y="480" as="targetPoint" />
            <Array as="points">
              <mxPoint x="295" y="510" />
              <mxPoint x="240" y="510" />
            </Array>
          </mxGeometry>
        </mxCell>
        <mxCell id="7Npt1wdLBXmJ5ymIumH4-36" value="" style="endArrow=classic;startArrow=classic;html=1;rounded=0;exitX=0.5;exitY=0;exitDx=0;exitDy=0;entryX=0.25;entryY=1;entryDx=0;entryDy=0;" parent="1" source="7Npt1wdLBXmJ5ymIumH4-4" target="7Npt1wdLBXmJ5ymIumH4-3" edge="1">
          <mxGeometry width="50" height="50" relative="1" as="geometry">
            <mxPoint x="435" y="560" as="sourcePoint" />
            <mxPoint x="380" y="510" as="targetPoint" />
            <Array as="points">
              <mxPoint x="75" y="500" />
              <mxPoint x="135" y="500" />
            </Array>
          </mxGeometry>
        </mxCell>
        <mxCell id="7Npt1wdLBXmJ5ymIumH4-37" value="" style="endArrow=classic;startArrow=classic;html=1;rounded=0;entryX=0.25;entryY=0;entryDx=0;entryDy=0;exitX=0.5;exitY=1;exitDx=0;exitDy=0;" parent="1" source="7Npt1wdLBXmJ5ymIumH4-9" target="7Npt1wdLBXmJ5ymIumH4-3" edge="1">
          <mxGeometry width="50" height="50" relative="1" as="geometry">
            <mxPoint x="85" y="540" as="sourcePoint" />
            <mxPoint x="145" y="490" as="targetPoint" />
            <Array as="points">
              <mxPoint x="220" y="410" />
              <mxPoint x="135" y="410" />
            </Array>
          </mxGeometry>
        </mxCell>
        <mxCell id="7Npt1wdLBXmJ5ymIumH4-39" value="" style="endArrow=classic;startArrow=classic;html=1;rounded=0;entryX=0.5;entryY=1;entryDx=0;entryDy=0;dashed=1;strokeWidth=2;fillColor=#dae8fc;strokeColor=#6c8ebf;exitX=0.5;exitY=0;exitDx=0;exitDy=0;exitPerimeter=0;" parent="1" source="7Npt1wdLBXmJ5ymIumH4-7" target="7Npt1wdLBXmJ5ymIumH4-24" edge="1">
          <mxGeometry width="50" height="50" relative="1" as="geometry">
            <mxPoint x="355" y="440" as="sourcePoint" />
            <mxPoint x="390" y="374" as="targetPoint" />
          </mxGeometry>
        </mxCell>
        <mxCell id="7Npt1wdLBXmJ5ymIumH4-42" value="" style="endArrow=classic;startArrow=classic;html=1;rounded=0;exitX=0.5;exitY=0;exitDx=0;exitDy=0;entryX=0.75;entryY=0;entryDx=0;entryDy=0;" parent="1" source="7Npt1wdLBXmJ5ymIumH4-10" target="7Npt1wdLBXmJ5ymIumH4-3" edge="1">
          <mxGeometry width="50" height="50" relative="1" as="geometry">
            <mxPoint x="630" y="450" as="sourcePoint" />
            <mxPoint x="460" y="465" as="targetPoint" />
            <Array as="points">
              <mxPoint x="560" y="390" />
              <mxPoint x="345" y="390" />
            </Array>
          </mxGeometry>
        </mxCell>
        <mxCell id="7Npt1wdLBXmJ5ymIumH4-43" value="" style="shape=flexArrow;endArrow=classic;html=1;rounded=0;" parent="1" edge="1">
          <mxGeometry width="50" height="50" relative="1" as="geometry">
            <mxPoint x="220" y="330" as="sourcePoint" />
            <mxPoint x="220" y="250" as="targetPoint" />
          </mxGeometry>
        </mxCell>
        <mxCell id="7Npt1wdLBXmJ5ymIumH4-44" value="Docker Compose" style="text;html=1;strokeColor=none;fillColor=none;align=center;verticalAlign=middle;whiteSpace=wrap;rounded=0;" parent="1" vertex="1">
          <mxGeometry x="687.5" y="590" width="105" height="30" as="geometry" />
        </mxCell>
        <mxCell id="7kdsMO98y5sn18G8m-w_-2" value="API" style="shape=ext;double=1;whiteSpace=wrap;html=1;aspect=fixed;" parent="1" vertex="1">
          <mxGeometry x="450" y="180" width="50" height="50" as="geometry" />
        </mxCell>
        <mxCell id="7kdsMO98y5sn18G8m-w_-4" value="" style="shape=flexArrow;endArrow=classic;html=1;rounded=0;entryX=0;entryY=0.5;entryDx=0;entryDy=0;width=13;endSize=6.2;exitX=1;exitY=0.5;exitDx=0;exitDy=0;" parent="1" source="7kdsMO98y5sn18G8m-w_-2" target="7Npt1wdLBXmJ5ymIumH4-27" edge="1">
          <mxGeometry width="50" height="50" relative="1" as="geometry">
            <mxPoint x="425" y="215" as="sourcePoint" />
            <mxPoint x="460" y="215" as="targetPoint" />
          </mxGeometry>
        </mxCell>
        <mxCell id="UQ5qbsGniW9rWeWsS5vU-2" value="" style="endArrow=classic;startArrow=classic;html=1;rounded=0;entryX=0.5;entryY=1;entryDx=0;entryDy=0;exitX=0.5;exitY=1;exitDx=0;exitDy=0;exitPerimeter=0;" edge="1" parent="1" source="7Npt1wdLBXmJ5ymIumH4-7" target="7Npt1wdLBXmJ5ymIumH4-10">
          <mxGeometry width="50" height="50" relative="1" as="geometry">
            <mxPoint x="560" y="545" as="sourcePoint" />
            <mxPoint x="610" y="495" as="targetPoint" />
            <Array as="points">
              <mxPoint x="740" y="530" />
              <mxPoint x="560" y="530" />
            </Array>
          </mxGeometry>
        </mxCell>
      </root>
    </mxGraphModel>
  </diagram>
</mxfile>
